<?xml version="1.0" encoding="utf-8"?>
<!-- Generator: Adobe Illustrator 27.5.0, SVG Export Plug-In . SVG Version: 6.00 Build 0)  -->
<svg version="1.1" xmlns="http://www.w3.org/2000/svg" xmlns:xlink="http://www.w3.org/1999/xlink" x="0px" y="0px"
	 viewBox="0 0 750 500" style="enable-background:new 0 0 750 500;" xml:space="preserve">
<g id="BACKGROUND">
	<rect style="fill:#FFFFFF;" width="750" height="500"/>
</g>
<g id="OBJECTS">
	<g>
		<g>
			<linearGradient id="SVGID_1_" gradientUnits="userSpaceOnUse" x1="375" y1="176.5074" x2="375" y2="487.5196">
				<stop  offset="0" style="stop-color:#DFDEEE"/>
				<stop  offset="1" style="stop-color:#C1BED7"/>
			</linearGradient>
			<path style="fill:url(#SVGID_1_);" d="M570.656,284.421c-8.48,18.54-14.97,39.03-11.54,59.15c3.11,18.16,14.14,35.3,11.83,53.59
				c-1.26,10.06-5.57,17.89-11.73,23.77c-1.25,1.21-2.57,2.32-3.96,3.35c-4.2,3.12-9.01,5.55-14.16,7.34
				c-1.94,0.66-3.9,1.24-5.91,1.74c-3.16,0.79-6.39,1.35-9.64,1.72c-1.23,0.13-2.45,0.24-3.69,0.34c-2.53,0.16-5.05,0.22-7.57,0.17
				c-0.69-0.01-1.36-0.03-2.04-0.06c-0.5-0.02-1.01-0.05-1.51-0.08c-1.6-0.08-3.19-0.19-4.77-0.34c-2.77-0.24-5.52-0.58-8.26-0.98
				c-10.51-1.55-20.82-4.09-31.09-6.92c-0.22-0.06-0.45-0.12-0.67-0.19c-15.32-4.22-30.57-8.98-46.18-11.76
				c-27.86-4.95-56.29-6.34-84.54-5.22c-27.25,1.07-53.94,7.04-81.01,8.49c-27.31,1.46-57.35-1.71-77.59-18.46
				c-0.46-0.38-0.91-0.76-1.36-1.16c-7.59-6.65-13.7-15.33-17.63-26.53c-6.99-19.94,1.34-38.58,10.14-56.3
				c12.97-26.12,20.02-57.87,12.05-87.08c-7.48-27.44-41.05-55.41-25-85.42c12.47-23.3,45.22-25.9,65.37-39.62
				c28.94-19.7,35.08-63.95,66.33-79.75c24.84-12.56,54.59-1.7,80.2,9.21c28.29,12.06,57.75,25.9,87.49,35.96
				c29,9.82,61.62,10.66,88.34,26.53c44.02,26.09,66.83,83.38,52.78,132.59C589.736,248.121,579.126,265.861,570.656,284.421z"/>
			<g>
				<g>
					<rect x="206.719" y="352.288" style="fill:#C1BED7;" width="28.084" height="12.036"/>
					<g>
						<rect x="190.814" y="337.004" style="fill:#C1BED7;" width="28.084" height="12.036"/>
						<rect x="222.623" y="337.004" style="fill:#C1BED7;" width="28.084" height="12.036"/>
					</g>
				</g>
				<g>
					
						<rect x="290.493" y="52.538" transform="matrix(-1 -1.224647e-16 1.224647e-16 -1 609.0691 117.1123)" style="fill:#C1BED7;" width="28.084" height="12.036"/>
					<g>
						
							<rect x="306.397" y="67.822" transform="matrix(-1 -1.224647e-16 1.224647e-16 -1 640.8782 147.6797)" style="fill:#C1BED7;" width="28.084" height="12.036"/>
						
							<rect x="274.588" y="67.822" transform="matrix(-1 -1.224647e-16 1.224647e-16 -1 577.2601 147.6797)" style="fill:#C1BED7;" width="28.084" height="12.036"/>
					</g>
				</g>
				<g>
					
						<rect x="555.074" y="198.865" transform="matrix(-1 -1.224647e-16 1.224647e-16 -1 1138.2311 409.7653)" style="fill:#C1BED7;" width="28.084" height="12.036"/>
					<g>
						
							<rect x="539.169" y="214.148" transform="matrix(-1 -1.224647e-16 1.224647e-16 -1 1106.4219 440.3325)" style="fill:#C1BED7;" width="28.084" height="12.036"/>
					</g>
				</g>
				<g>
					<rect x="183.33" y="179.47" style="fill:#C1BED7;" width="28.084" height="12.036"/>
				</g>
				<g>
					<rect x="414.224" y="96.806" style="fill:#C1BED7;" width="28.084" height="12.036"/>
				</g>
			</g>
		</g>
		<g>
			<path style="fill:#0CC3BE;" d="M215.307,87.264c4.648,3.604,7.959,9.363,8.769,15.131c0.578,0.875,1.238,1.878,1.982,3.002
				c0.666-5.704,3.109-11.129,6.589-15.652c0.248,5.92-2.05,12.216-5.987,16.562c1.228,1.852,2.645,3.973,4.251,6.33
				c0.742,1.083,1.519,2.218,2.329,3.401c0.389,0.557,0.791,1.121,1.199,1.693c1.627-8.227,6.121-15.672,12.096-21.486
				c-0.637,8.414-5.19,16.823-11.805,21.895c0.359,0.501,0.72,1.006,1.087,1.524c1.761,2.527,3.729,5.12,5.765,7.885
				c0.934,1.231,1.897,2.485,2.88,3.753c1.112-9.972,5.647-19.313,12.138-26.941c0.407,10.276-3.922,20.983-11.25,28.08
				c2.304,2.949,4.733,5.973,7.266,9.021c0.054,0.017,0.11,0.031,0.164,0.048c-0.029,0.015-0.059,0.028-0.089,0.042
				c0.87,1.046,1.748,2.094,2.642,3.143c0.089,0.103,0.176,0.202,0.265,0.305c0.737-11.357,6.415-22.682,15.085-29.787
				c-1.144,11.565-6.421,22.317-14.002,31.036c4.525,5.197,8.918,9.922,12.977,14.101c0.34,0.338,0.672,0.672,1.006,1.008
				c-1.49-13.878,3.258-28.788,12.535-38.962c0.656,14.154-3.938,28.047-11.694,39.805c1.568,1.577,3.079,3.094,4.528,4.449
				c1.003,0.955,1.971,1.905,2.904,2.779c0.935,0.856,1.833,1.678,2.69,2.463c0.024,0.022,0.047,0.042,0.071,0.064
				c0.203-13.288,6.338-26.827,16.202-35.451c-0.897,13.428-6.662,26.058-15.175,36.381c6.217,5.611,10.061,8.701,10.092,9.155
				c0.027,0.298-2.844-1.456-7.747-5.326c-8.26,7.31-18.924,11.392-29.851,12.51c7.179-8.115,18.275-13.109,29.022-13.17
				c-0.779-0.624-1.604-1.297-2.471-2.019c-0.021,0.025-0.041,0.051-0.063,0.075c-0.002-0.042,0.001-0.085-0.001-0.127
				c-0.049-0.041-0.094-0.078-0.143-0.119c-0.877-0.743-1.795-1.522-2.753-2.333c-0.956-0.836-1.949-1.753-2.979-2.682
				c-0.369-0.326-0.746-0.674-1.122-1.02c-11.72,7.499-25.787,10.591-39.641,9.983c10.316-8.701,24.784-12.972,38.105-11.418
				c-1.26-1.197-2.555-2.459-3.897-3.753c-1.709-1.704-3.476-3.511-5.286-5.416c-13.025,5.338-27.59,5.791-41.235,2.567
				c11.859-6.674,27.026-8.141,39.891-3.996c-2.638-2.815-5.354-5.825-8.108-9.029c-1.237-1.451-2.45-2.906-3.639-4.357
				c-10.446,4.748-22.284,5.708-33.556,3.718c9.285-5.95,21.383-7.965,32.088-5.527c-2.77-3.432-5.391-6.829-7.837-10.111
				c-9.944,2.197-21.111,0.059-29.321-5.715c9.429-1.644,19.107-0.066,27.843,3.708c-1.912-2.666-3.749-5.194-5.387-7.656
				c-0.884-1.308-1.748-2.559-2.555-3.784c-0.333-0.519-0.658-1.024-0.98-1.524c-6.115,2.466-13.244,1.613-18.69-2.314
				c5.911-1.978,12.153-1.372,17.883,1.059c-0.165-0.257-0.335-0.521-0.497-0.772c-1.511-2.378-2.83-4.528-3.958-6.419
				c-0.008,0.008-0.015,0.017-0.023,0.024c0.001-0.019,0.003-0.038,0.005-0.056c-0.177-0.297-0.352-0.59-0.519-0.874
				c-5.918,0.094-12.127-2.247-16.324-6.218c5.489,0.11,10.836,1.915,15.482,4.778c-0.37-0.64-0.704-1.227-1.014-1.778
				C219.31,98.685,216.569,93.088,215.307,87.264z"/>
			<path style="fill:#0CC3BE;" d="M569.286,73.188c-3.507,4.721-5.148,11.159-4.377,16.932c-0.321,0.998-0.687,2.141-1.101,3.425
				c-2.175-5.314-5.988-9.883-10.556-13.303c1.353,5.769,5.26,11.215,10.22,14.341c-0.685,2.114-1.479,4.539-2.392,7.24
				c-0.423,1.243-0.867,2.545-1.329,3.902c-0.224,0.641-0.46,1.293-0.7,1.953c-3.78-7.486-10.11-13.449-17.429-17.441
				c2.877,7.933,9.523,14.807,17.258,17.914c-0.211,0.579-0.423,1.162-0.637,1.76c-1.016,2.908-2.215,5.934-3.432,9.145
				c-0.569,1.437-1.159,2.904-1.765,4.389c-3.753-9.306-10.633-17.083-18.936-22.684c2.372,10.007,9.42,19.156,18.387,24.02
				c-1.426,3.46-2.952,7.026-4.572,10.643c-0.047,0.031-0.098,0.059-0.145,0.09c0.032,0.007,0.065,0.011,0.097,0.017
				c-0.557,1.242-1.12,2.487-1.699,3.738c-0.058,0.123-0.115,0.242-0.173,0.365c-3.765-10.741-12.279-20.121-22.54-24.633
				c4.212,10.831,12.186,19.768,21.833,26.127c-2.961,6.223-5.921,11.954-8.707,17.071c-0.236,0.417-0.466,0.828-0.698,1.241
				c-2.297-13.768-10.88-26.852-22.551-34.156c3.174,13.809,11.335,25.955,21.967,35.194c-1.087,1.94-2.133,3.808-3.165,5.502
				c-0.709,1.19-1.386,2.365-2.05,3.457c-0.67,1.076-1.314,2.109-1.928,3.095c-0.017,0.028-0.034,0.053-0.051,0.081
				c-3.769-12.744-13.319-24.134-25.139-29.788c4.475,12.693,13.425,23.307,24.4,30.96c-4.479,7.076-7.351,11.086-7.259,11.532
				c0.054,0.294,2.347-2.167,6.03-7.213c9.921,4.82,21.29,5.883,32.116,4.022c-9.096-5.886-21.127-7.712-31.494-4.88
				c0.582-0.81,1.196-1.68,1.837-2.609c0.027,0.018,0.053,0.038,0.08,0.056c-0.01-0.041-0.023-0.082-0.034-0.123
				c0.036-0.052,0.07-0.1,0.106-0.153c0.645-0.952,1.32-1.949,2.024-2.987c0.696-1.062,1.406-2.213,2.148-3.384
				c0.268-0.413,0.537-0.85,0.807-1.284c13.305,4.07,27.685,3.266,40.865-1.045c-12.276-5.607-27.359-5.829-39.771-0.75
				c0.892-1.491,1.8-3.055,2.745-4.663c1.188-2.1,2.404-4.317,3.635-6.638c13.981,1.639,28.131-1.842,40.406-8.616
				c-13.217-3.239-28.22-0.573-39.496,6.879c1.784-3.421,3.59-7.051,5.381-10.876c0.801-1.731,1.578-3.458,2.333-5.175
				c11.338,1.764,22.998-0.495,33.32-5.443c-10.543-3.234-22.737-1.921-32.392,3.306c1.745-4.051,3.356-8.027,4.829-11.846
				c10.168-0.558,20.35-5.62,26.704-13.39c-9.524,0.952-18.421,5.074-25.82,11.059c1.125-3.082,2.214-6.01,3.13-8.823
				c0.5-1.497,0.995-2.935,1.443-4.331c0.182-0.589,0.359-1.163,0.534-1.732c6.553,0.731,13.19-2.008,17.38-7.255
				c-6.225-0.316-12.074,1.947-16.94,5.829c0.09-0.292,0.183-0.592,0.271-0.878c0.816-2.697,1.508-5.122,2.086-7.247
				c0.01,0.006,0.019,0.012,0.029,0.017c-0.006-0.018-0.013-0.035-0.019-0.053c0.091-0.334,0.18-0.663,0.265-0.982
				c5.725-1.501,11.076-5.426,14.05-10.379c-5.257,1.582-9.922,4.758-13.626,8.765c0.185-0.716,0.348-1.371,0.498-1.985
				C568.502,85.265,569.637,79.136,569.286,73.188z"/>
			<g>
				<g>
					<path style="fill:#0797A7;" d="M217.121,165.67l6.787,11.226l-2.021-9.857c4.617,1.459,8.205,2.703,13.258,4.697l7.406,17.65
						l-1.838-15.45c5.635,2.398,8.633,3.62,13.905,6.726c1.87,8.466,4.343,17.367,4.343,17.367l1.941-13.626
						c6.112,3.945,11.567,8.409,15.679,13.456c0.659,0.816,0.048,0.023,0.659,0.816l1.995,12.151l2.122-6.72
						c15.704,22.169,10.335,33.327,10.335,33.327s-0.475,0.198-1.45,0.456c-0.737,0.186-1.773,0.419-3.103,0.595
						c-5.193,0.741-14.896,0.902-29.53-3.522l7.816-4.891l-12.193,2.277c-1.098-0.532-2.219-1.082-3.356-1.688
						c-3.67-1.908-3.421-1.291-6.82-4.176l10.959-6.707l-15.919,2.618c-1.973-1.734-3.893-3.603-5.755-5.566l11.777-3.931
						l-15.819-0.798c-3.408-3.786-4.512-5.231-7.502-9.397l12.298-3.961l-16.013-1.695c-4.359-6.35-4.112-6.13-7.286-11.918
						l10.907-2.053l-13.763-2.391c-5.131-9.765-9.569-20.029-9.569-20.029S204.696,161.915,217.121,165.67z"/>
				</g>
			</g>
			<g>
				<g>
					<path style="fill:#0797A7;" d="M587.745,325.492l-12.716,3.225l10.018,0.937c-2.74,3.992-4.975,7.062-8.354,11.316
						l-19.041,1.946l15.315,2.74c-3.935,4.693-5.977,7.205-10.484,11.344c-8.644-0.676-17.879-0.902-17.879-0.902l12.471,5.825
						c-5.554,4.698-11.413,8.617-17.438,11.082c-0.973,0.393-0.036,0.04-0.973,0.393l-12.205-1.63l5.811,3.987
						c-25.781,8.569-34.892,0.184-34.892,0.184s-0.051-0.512-0.014-1.52c0.036-0.759,0.115-1.819,0.334-3.142
						c0.803-5.183,3.474-14.514,11.968-27.225l2.404,8.901l1.372-12.328c0.829-0.896,1.681-1.808,2.592-2.719
						c2.894-2.955,2.231-2.897,5.981-5.308l3.226,12.437l2.131-15.992c2.233-1.383,4.58-2.675,7.001-3.885l0.332,12.411
						l5.369-14.901c4.614-2.158,6.318-2.794,11.174-4.441l0.209,12.918l6.284-14.826c7.344-2.321,7.062-2.149,13.523-3.5
						l-1.211,11.032l6.294-12.47c10.836-2.065,21.948-3.323,21.948-3.323S594.955,314.698,587.745,325.492z"/>
				</g>
			</g>
		</g>
		<g>
			<g>
				<path style="fill:#FFFFFF;" d="M545.725,135.932v238.874c0,5.183-4.201,9.368-9.384,9.368H270.409
					c-5.183,0-9.368-4.185-9.368-9.368V135.932c0-5.183,4.185-9.384,9.368-9.384h265.932
					C541.524,126.548,545.725,130.749,545.725,135.932z"/>
				<g>
					<g>
						<path style="fill:#343C4B;" d="M319.302,229.973h-30.375c-1.28,0-2.317-1.038-2.317-2.317v-27.022
							c0-1.28,1.038-2.318,2.317-2.318h30.375c1.28,0,2.317,1.038,2.317,2.318v27.022
							C321.619,228.936,320.581,229.973,319.302,229.973z"/>
						<path style="fill:#FFFFFF;" d="M319.672,201.649v24.998c0,0.869-0.708,1.561-1.577,1.561h-27.96
							c-0.869,0-1.577-0.692-1.577-1.561v-24.998c0-0.869,0.708-1.578,1.577-1.578h27.96
							C318.964,200.071,319.672,200.779,319.672,201.649z"/>
					</g>
					<g>
						<g>
							<polygon style="fill:#0797A7;" points="316.308,224.876 316.308,228.208 292.968,228.208 304.139,213.592 307.713,216.908 
															"/>
							<path style="fill:#0CC3BE;" d="M319.672,222.333v4.314c0,0.869-0.708,1.561-1.577,1.561h-19.026l8.644-11.3l2.527-3.316
								L319.672,222.333z"/>
						</g>
						<path style="fill:#FDA859;" d="M302.795,208.779c0,2.963-2.402,5.365-5.366,5.365c-2.963,0-5.365-2.402-5.365-5.365
							c0-2.963,2.402-5.366,5.365-5.366C300.393,203.414,302.795,205.816,302.795,208.779z"/>
					</g>
				</g>
				<g>
					<rect x="394.848" y="320.674" style="fill:#698BB1;" width="90.745" height="18.963"/>
					<g>
						<circle style="fill:#FCC700;" cx="485.593" cy="320.674" r="7.945"/>
						<polygon style="fill:#FFFFFF;" points="490.137,319.366 486.9,319.366 486.9,316.13 484.285,316.13 484.285,319.366 
							481.048,319.366 481.048,321.982 484.285,321.982 484.285,325.218 486.9,325.218 486.9,321.982 490.137,321.982 						"/>
					</g>
					<g>
						<rect x="400.918" y="325.267" style="fill:#FFFFFF;" width="51.107" height="3.353"/>
						<rect x="400.918" y="331.691" style="fill:#FFFFFF;" width="77.532" height="3.353"/>
					</g>
				</g>
				<g>
					<g>
						<path style="fill:#FD7658;" d="M289.09,144.482c0,2.741-2.222,4.963-4.963,4.963c-2.741,0-4.963-2.222-4.963-4.963
							c0-2.741,2.222-4.963,4.963-4.963C286.868,139.519,289.09,141.741,289.09,144.482z"/>
						<path style="fill:#FD7658;" d="M309.077,144.482c0,2.741-2.222,4.963-4.963,4.963c-2.741,0-4.963-2.222-4.963-4.963
							c0-2.741,2.222-4.963,4.963-4.963C306.855,139.519,309.077,141.741,309.077,144.482z"/>
						<path style="fill:#FD7658;" d="M329.064,144.482c0,2.741-2.222,4.963-4.963,4.963c-2.741,0-4.963-2.222-4.963-4.963
							c0-2.741,2.222-4.963,4.963-4.963C326.842,139.519,329.064,141.741,329.064,144.482z"/>
					</g>
					<g>
						<g>
							<g>
								<path style="fill:#C1BED7;" d="M527.601,367.98h-4.024c-0.445,0-0.805-0.36-0.805-0.805c0-0.445,0.36-0.805,0.805-0.805
									h3.219v-3.219c0-0.445,0.36-0.805,0.805-0.805c0.445,0,0.805,0.36,0.805,0.805v4.024
									C528.406,367.62,528.046,367.98,527.601,367.98z"/>
							</g>
							<g>
								<path style="fill:#C1BED7;" d="M515.459,367.98h-8.118c-0.445,0-0.805-0.36-0.805-0.805c0-0.445,0.36-0.805,0.805-0.805
									h8.118c0.445,0,0.805,0.36,0.805,0.805C516.264,367.62,515.904,367.98,515.459,367.98z M499.223,367.98h-8.118
									c-0.445,0-0.805-0.36-0.805-0.805c0-0.445,0.36-0.805,0.805-0.805h8.118c0.445,0,0.805,0.36,0.805,0.805
									C500.028,367.62,499.668,367.98,499.223,367.98z M482.987,367.98h-8.118c-0.445,0-0.805-0.36-0.805-0.805
									c0-0.445,0.36-0.805,0.805-0.805h8.118c0.445,0,0.805,0.36,0.805,0.805C483.792,367.62,483.432,367.98,482.987,367.98z
									 M466.751,367.98h-8.117c-0.445,0-0.805-0.36-0.805-0.805c0-0.445,0.36-0.805,0.805-0.805h8.117
									c0.445,0,0.805,0.36,0.805,0.805C467.555,367.62,467.195,367.98,466.751,367.98z M450.515,367.98h-8.118
									c-0.445,0-0.805-0.36-0.805-0.805c0-0.445,0.36-0.805,0.805-0.805h8.118c0.445,0,0.805,0.36,0.805,0.805
									C451.32,367.62,450.96,367.98,450.515,367.98z M434.278,367.98h-8.117c-0.445,0-0.805-0.36-0.805-0.805
									c0-0.445,0.36-0.805,0.805-0.805h8.117c0.445,0,0.805,0.36,0.805,0.805C435.083,367.62,434.723,367.98,434.278,367.98z
									 M418.043,367.98h-8.118c-0.445,0-0.805-0.36-0.805-0.805c0-0.445,0.36-0.805,0.805-0.805h8.118
									c0.445,0,0.805,0.36,0.805,0.805C418.848,367.62,418.487,367.98,418.043,367.98z M401.806,367.98h-8.118
									c-0.445,0-0.805-0.36-0.805-0.805c0-0.445,0.36-0.805,0.805-0.805h8.118c0.445,0,0.805,0.36,0.805,0.805
									C402.611,367.62,402.251,367.98,401.806,367.98z M385.57,367.98h-8.118c-0.445,0-0.805-0.36-0.805-0.805
									c0-0.445,0.36-0.805,0.805-0.805h8.118c0.445,0,0.805,0.36,0.805,0.805C386.375,367.62,386.015,367.98,385.57,367.98z
									 M369.334,367.98h-8.118c-0.445,0-0.805-0.36-0.805-0.805c0-0.445,0.36-0.805,0.805-0.805h8.118
									c0.445,0,0.805,0.36,0.805,0.805C370.139,367.62,369.779,367.98,369.334,367.98z"/>
							</g>
							<g>
								<path style="fill:#C1BED7;" d="M353.097,367.98h-4.024c-0.445,0-0.805-0.36-0.805-0.805v-4.024
									c0-0.445,0.36-0.805,0.805-0.805c0.445,0,0.805,0.36,0.805,0.805v3.219h3.219c0.445,0,0.805,0.36,0.805,0.805
									C353.902,367.62,353.542,367.98,353.097,367.98z"/>
							</g>
							<g>
								<path style="fill:#C1BED7;" d="M349.073,355.837c-0.445,0-0.805-0.36-0.805-0.805v-8.117c0-0.445,0.36-0.805,0.805-0.805
									c0.445,0,0.805,0.36,0.805,0.805v8.117C349.878,355.477,349.518,355.837,349.073,355.837z M349.073,339.6
									c-0.445,0-0.805-0.36-0.805-0.805v-8.117c0-0.445,0.36-0.805,0.805-0.805c0.445,0,0.805,0.36,0.805,0.805v8.117
									C349.878,339.241,349.518,339.6,349.073,339.6z M349.073,323.364c-0.445,0-0.805-0.36-0.805-0.805v-8.117
									c0-0.445,0.36-0.805,0.805-0.805c0.445,0,0.805,0.36,0.805,0.805v8.117C349.878,323.004,349.518,323.364,349.073,323.364z
									 M349.073,307.129c-0.445,0-0.805-0.36-0.805-0.805v-8.119c0-0.445,0.36-0.805,0.805-0.805c0.445,0,0.805,0.36,0.805,0.805
									v8.119C349.878,306.769,349.518,307.129,349.073,307.129z M349.073,290.892c-0.445,0-0.805-0.36-0.805-0.805v-8.117
									c0-0.445,0.36-0.805,0.805-0.805c0.445,0,0.805,0.36,0.805,0.805v8.117C349.878,290.533,349.518,290.892,349.073,290.892z
									 M349.073,274.656c-0.445,0-0.805-0.36-0.805-0.805v-8.117c0-0.445,0.36-0.805,0.805-0.805c0.445,0,0.805,0.36,0.805,0.805
									v8.117C349.878,274.296,349.518,274.656,349.073,274.656z M349.073,258.419c-0.445,0-0.805-0.36-0.805-0.805v-8.117
									c0-0.445,0.36-0.805,0.805-0.805c0.445,0,0.805,0.36,0.805,0.805v8.117C349.878,258.06,349.518,258.419,349.073,258.419z
									 M349.073,242.184c-0.445,0-0.805-0.36-0.805-0.805v-8.118c0-0.445,0.36-0.805,0.805-0.805c0.445,0,0.805,0.36,0.805,0.805
									v8.118C349.878,241.824,349.518,242.184,349.073,242.184z M349.073,225.948c-0.445,0-0.805-0.36-0.805-0.805v-8.118
									c0-0.445,0.36-0.805,0.805-0.805c0.445,0,0.805,0.36,0.805,0.805v8.118C349.878,225.588,349.518,225.948,349.073,225.948z
									 M349.073,209.712c-0.445,0-0.805-0.36-0.805-0.805v-8.118c0-0.445,0.36-0.805,0.805-0.805c0.445,0,0.805,0.36,0.805,0.805
									v8.118C349.878,209.352,349.518,209.712,349.073,209.712z"/>
							</g>
							<g>
								<path style="fill:#C1BED7;" d="M349.073,193.476c-0.445,0-0.805-0.36-0.805-0.805v-4.024c0-0.445,0.36-0.805,0.805-0.805
									h4.024c0.445,0,0.805,0.36,0.805,0.805c0,0.445-0.36,0.805-0.805,0.805h-3.219v3.219
									C349.878,193.116,349.518,193.476,349.073,193.476z"/>
							</g>
							<g>
								<path style="fill:#C1BED7;" d="M515.459,189.452h-8.118c-0.445,0-0.805-0.36-0.805-0.805c0-0.445,0.36-0.805,0.805-0.805
									h8.118c0.445,0,0.805,0.36,0.805,0.805C516.264,189.092,515.904,189.452,515.459,189.452z M499.223,189.452h-8.118
									c-0.445,0-0.805-0.36-0.805-0.805c0-0.445,0.36-0.805,0.805-0.805h8.118c0.445,0,0.805,0.36,0.805,0.805
									C500.028,189.092,499.668,189.452,499.223,189.452z M482.987,189.452h-8.118c-0.445,0-0.805-0.36-0.805-0.805
									c0-0.445,0.36-0.805,0.805-0.805h8.118c0.445,0,0.805,0.36,0.805,0.805C483.792,189.092,483.432,189.452,482.987,189.452z
									 M466.751,189.452h-8.118c-0.445,0-0.805-0.36-0.805-0.805c0-0.445,0.36-0.805,0.805-0.805h8.118
									c0.445,0,0.805,0.36,0.805,0.805C467.555,189.092,467.195,189.452,466.751,189.452z M450.514,189.452h-8.117
									c-0.445,0-0.805-0.36-0.805-0.805c0-0.445,0.36-0.805,0.805-0.805h8.117c0.445,0,0.805,0.36,0.805,0.805
									C451.319,189.092,450.959,189.452,450.514,189.452z M434.278,189.452h-8.118c-0.445,0-0.805-0.36-0.805-0.805
									c0-0.445,0.36-0.805,0.805-0.805h8.118c0.445,0,0.805,0.36,0.805,0.805C435.083,189.092,434.723,189.452,434.278,189.452z
									 M418.042,189.452h-8.117c-0.445,0-0.805-0.36-0.805-0.805c0-0.445,0.36-0.805,0.805-0.805h8.117
									c0.445,0,0.805,0.36,0.805,0.805C418.847,189.092,418.487,189.452,418.042,189.452z M401.806,189.452h-8.118
									c-0.445,0-0.805-0.36-0.805-0.805c0-0.445,0.36-0.805,0.805-0.805h8.118c0.445,0,0.805,0.36,0.805,0.805
									C402.611,189.092,402.251,189.452,401.806,189.452z M385.57,189.452h-8.117c-0.445,0-0.805-0.36-0.805-0.805
									c0-0.445,0.36-0.805,0.805-0.805h8.117c0.445,0,0.805,0.36,0.805,0.805C386.374,189.092,386.014,189.452,385.57,189.452z
									 M369.334,189.452h-8.118c-0.445,0-0.805-0.36-0.805-0.805c0-0.445,0.36-0.805,0.805-0.805h8.118
									c0.445,0,0.805,0.36,0.805,0.805C370.139,189.092,369.779,189.452,369.334,189.452z"/>
							</g>
							<g>
								<path style="fill:#C1BED7;" d="M527.601,193.476c-0.445,0-0.805-0.36-0.805-0.805v-3.219h-3.219
									c-0.445,0-0.805-0.36-0.805-0.805c0-0.445,0.36-0.805,0.805-0.805h4.024c0.445,0,0.805,0.36,0.805,0.805v4.024
									C528.406,193.116,528.046,193.476,527.601,193.476z"/>
							</g>
							<g>
								<path style="fill:#C1BED7;" d="M527.601,355.837c-0.445,0-0.805-0.36-0.805-0.805v-8.117c0-0.445,0.36-0.805,0.805-0.805
									c0.445,0,0.805,0.36,0.805,0.805v8.117C528.406,355.477,528.046,355.837,527.601,355.837z M527.601,339.602
									c-0.445,0-0.805-0.36-0.805-0.805v-8.119c0-0.445,0.36-0.805,0.805-0.805c0.445,0,0.805,0.36,0.805,0.805v8.119
									C528.406,339.242,528.046,339.602,527.601,339.602z M527.601,323.366c-0.445,0-0.805-0.36-0.805-0.805v-8.119
									c0-0.445,0.36-0.805,0.805-0.805c0.445,0,0.805,0.36,0.805,0.805v8.119C528.406,323.006,528.046,323.366,527.601,323.366z
									 M527.601,307.129c-0.445,0-0.805-0.36-0.805-0.805v-8.117c0-0.445,0.36-0.805,0.805-0.805c0.445,0,0.805,0.36,0.805,0.805
									v8.117C528.406,306.769,528.046,307.129,527.601,307.129z M527.601,290.892c-0.445,0-0.805-0.36-0.805-0.805v-8.117
									c0-0.445,0.36-0.805,0.805-0.805c0.445,0,0.805,0.36,0.805,0.805v8.117C528.406,290.533,528.046,290.892,527.601,290.892z
									 M527.601,274.656c-0.445,0-0.805-0.36-0.805-0.805v-8.117c0-0.445,0.36-0.805,0.805-0.805c0.445,0,0.805,0.36,0.805,0.805
									v8.117C528.406,274.296,528.046,274.656,527.601,274.656z M527.601,258.421c-0.445,0-0.805-0.36-0.805-0.805v-8.119
									c0-0.445,0.36-0.805,0.805-0.805c0.445,0,0.805,0.36,0.805,0.805v8.119C528.406,258.061,528.046,258.421,527.601,258.421z
									 M527.601,242.184c-0.445,0-0.805-0.36-0.805-0.805v-8.118c0-0.445,0.36-0.805,0.805-0.805c0.445,0,0.805,0.36,0.805,0.805
									v8.118C528.406,241.824,528.046,242.184,527.601,242.184z M527.601,225.948c-0.445,0-0.805-0.36-0.805-0.805v-8.118
									c0-0.445,0.36-0.805,0.805-0.805c0.445,0,0.805,0.36,0.805,0.805v8.118C528.406,225.588,528.046,225.948,527.601,225.948z
									 M527.601,209.712c-0.445,0-0.805-0.36-0.805-0.805v-8.118c0-0.445,0.36-0.805,0.805-0.805c0.445,0,0.805,0.36,0.805,0.805
									v8.118C528.406,209.352,528.046,209.712,527.601,209.712z"/>
							</g>
						</g>
						<g>
							<path style="fill:#C1BED7;" d="M329.064,239.351h-8.048c-0.445,0-0.805-0.36-0.805-0.805c0-0.445,0.36-0.805,0.805-0.805
								h7.243v-5.634c0-0.445,0.36-0.805,0.805-0.805c0.445,0,0.805,0.36,0.805,0.805v6.439
								C329.869,238.991,329.509,239.351,329.064,239.351z M312.967,239.351h-8.048c-0.445,0-0.805-0.36-0.805-0.805
								c0-0.445,0.36-0.805,0.805-0.805h8.048c0.445,0,0.805,0.36,0.805,0.805C313.772,238.991,313.412,239.351,312.967,239.351z
								 M296.871,239.351h-8.048c-0.445,0-0.805-0.36-0.805-0.805c0-0.445,0.36-0.805,0.805-0.805h8.048
								c0.445,0,0.805,0.36,0.805,0.805C297.676,238.991,297.316,239.351,296.871,239.351z M280.774,239.351h-1.61
								c-0.445,0-0.805-0.36-0.805-0.805v-6.439c0-0.445,0.36-0.805,0.805-0.805c0.445,0,0.805,0.36,0.805,0.805v5.634h0.805
								c0.445,0,0.805,0.36,0.805,0.805C281.579,238.991,281.219,239.351,280.774,239.351z M329.064,224.864
								c-0.445,0-0.805-0.36-0.805-0.805v-8.048c0-0.445,0.36-0.805,0.805-0.805c0.445,0,0.805,0.36,0.805,0.805v8.048
								C329.869,224.504,329.509,224.864,329.064,224.864z M279.164,224.864c-0.445,0-0.805-0.36-0.805-0.805v-8.048
								c0-0.445,0.36-0.805,0.805-0.805c0.445,0,0.805,0.36,0.805,0.805v8.048C279.969,224.504,279.609,224.864,279.164,224.864z
								 M329.064,208.768c-0.445,0-0.805-0.36-0.805-0.805v-8.048c0-0.445,0.36-0.805,0.805-0.805c0.445,0,0.805,0.36,0.805,0.805
								v8.048C329.869,208.408,329.509,208.768,329.064,208.768z M279.164,208.768c-0.445,0-0.805-0.36-0.805-0.805v-8.048
								c0-0.445,0.36-0.805,0.805-0.805c0.445,0,0.805,0.36,0.805,0.805v8.048C279.969,208.408,279.609,208.768,279.164,208.768z
								 M329.064,192.671c-0.445,0-0.805-0.36-0.805-0.805v-2.415h-4.024c-0.445,0-0.805-0.36-0.805-0.805
								c0-0.445,0.36-0.805,0.805-0.805h4.829c0.445,0,0.805,0.36,0.805,0.805v3.219
								C329.869,192.311,329.509,192.671,329.064,192.671z M279.164,192.671c-0.445,0-0.805-0.36-0.805-0.805v-3.219
								c0-0.445,0.36-0.805,0.805-0.805h4.829c0.445,0,0.805,0.36,0.805,0.805c0,0.445-0.36,0.805-0.805,0.805h-4.024v2.415
								C279.969,192.311,279.609,192.671,279.164,192.671z M316.187,189.452h-8.048c-0.445,0-0.805-0.36-0.805-0.805
								c0-0.445,0.36-0.805,0.805-0.805h8.048c0.445,0,0.805,0.36,0.805,0.805C316.992,189.092,316.632,189.452,316.187,189.452z
								 M300.09,189.452h-8.048c-0.445,0-0.805-0.36-0.805-0.805c0-0.445,0.36-0.805,0.805-0.805h8.048
								c0.445,0,0.805,0.36,0.805,0.805C300.895,189.092,300.535,189.452,300.09,189.452z"/>
						</g>
						<g>
							<path style="fill:#C1BED7;" d="M329.064,303.666h-8.048c-0.445,0-0.805-0.36-0.805-0.805c0-0.445,0.36-0.805,0.805-0.805
								h7.243v-5.634c0-0.445,0.36-0.805,0.805-0.805c0.445,0,0.805,0.36,0.805,0.805v6.439
								C329.869,303.306,329.509,303.666,329.064,303.666z M312.967,303.666h-8.048c-0.445,0-0.805-0.36-0.805-0.805
								c0-0.445,0.36-0.805,0.805-0.805h8.048c0.445,0,0.805,0.36,0.805,0.805C313.772,303.306,313.412,303.666,312.967,303.666z
								 M296.871,303.666h-8.048c-0.445,0-0.805-0.36-0.805-0.805c0-0.445,0.36-0.805,0.805-0.805h8.048
								c0.445,0,0.805,0.36,0.805,0.805C297.676,303.306,297.316,303.666,296.871,303.666z M280.774,303.666h-1.61
								c-0.445,0-0.805-0.36-0.805-0.805v-6.439c0-0.445,0.36-0.805,0.805-0.805c0.445,0,0.805,0.36,0.805,0.805v5.634h0.805
								c0.445,0,0.805,0.36,0.805,0.805C281.579,303.306,281.219,303.666,280.774,303.666z M329.064,289.179
								c-0.445,0-0.805-0.36-0.805-0.805v-8.048c0-0.445,0.36-0.805,0.805-0.805c0.445,0,0.805,0.36,0.805,0.805v8.048
								C329.869,288.819,329.509,289.179,329.064,289.179z M279.164,289.179c-0.445,0-0.805-0.36-0.805-0.805v-8.048
								c0-0.445,0.36-0.805,0.805-0.805c0.445,0,0.805,0.36,0.805,0.805v8.048C279.969,288.819,279.609,289.179,279.164,289.179z
								 M329.064,273.082c-0.445,0-0.805-0.36-0.805-0.805v-8.048c0-0.445,0.36-0.805,0.805-0.805c0.445,0,0.805,0.36,0.805,0.805
								v8.048C329.869,272.723,329.509,273.082,329.064,273.082z M279.164,273.082c-0.445,0-0.805-0.36-0.805-0.805v-8.048
								c0-0.445,0.36-0.805,0.805-0.805c0.445,0,0.805,0.36,0.805,0.805v8.048C279.969,272.723,279.609,273.082,279.164,273.082z
								 M329.064,256.986c-0.445,0-0.805-0.36-0.805-0.805v-2.415h-4.024c-0.445,0-0.805-0.36-0.805-0.805s0.36-0.805,0.805-0.805
								h4.829c0.445,0,0.805,0.36,0.805,0.805v3.219C329.869,256.626,329.509,256.986,329.064,256.986z M279.164,256.986
								c-0.445,0-0.805-0.36-0.805-0.805v-3.219c0-0.445,0.36-0.805,0.805-0.805h4.829c0.445,0,0.805,0.36,0.805,0.805
								s-0.36,0.805-0.805,0.805h-4.024v2.415C279.969,256.626,279.609,256.986,279.164,256.986z M316.187,253.766h-8.048
								c-0.445,0-0.805-0.36-0.805-0.805s0.36-0.805,0.805-0.805h8.048c0.445,0,0.805,0.36,0.805,0.805
								S316.632,253.766,316.187,253.766z M300.09,253.766h-8.048c-0.445,0-0.805-0.36-0.805-0.805s0.36-0.805,0.805-0.805h8.048
								c0.445,0,0.805,0.36,0.805,0.805S300.535,253.766,300.09,253.766z"/>
						</g>
						<g>
							
								<ellipse transform="matrix(0.7071 -0.7071 0.7071 0.7071 -107.4396 296.4392)" style="fill:#698BB1;" cx="304.114" cy="277.911" rx="12.408" ry="12.408"/>
							<polygon style="fill:#FFFFFF;" points="311.21,275.868 306.156,275.868 306.156,270.814 302.072,270.814 302.072,275.868 
								297.018,275.868 297.018,279.953 302.072,279.953 302.072,285.007 306.156,285.007 306.156,279.953 311.21,279.953 							
								"/>
						</g>
						<g>
							<path style="fill:#C1BED7;" d="M329.064,367.98h-8.048c-0.445,0-0.805-0.36-0.805-0.805c0-0.445,0.36-0.805,0.805-0.805
								h7.243v-5.634c0-0.445,0.36-0.805,0.805-0.805c0.445,0,0.805,0.36,0.805,0.805v6.439
								C329.869,367.62,329.509,367.98,329.064,367.98z M312.967,367.98h-8.048c-0.445,0-0.805-0.36-0.805-0.805
								c0-0.445,0.36-0.805,0.805-0.805h8.048c0.445,0,0.805,0.36,0.805,0.805C313.772,367.62,313.412,367.98,312.967,367.98z
								 M296.871,367.98h-8.048c-0.445,0-0.805-0.36-0.805-0.805c0-0.445,0.36-0.805,0.805-0.805h8.048
								c0.445,0,0.805,0.36,0.805,0.805C297.676,367.62,297.316,367.98,296.871,367.98z M280.774,367.98h-1.61
								c-0.445,0-0.805-0.36-0.805-0.805v-6.439c0-0.445,0.36-0.805,0.805-0.805c0.445,0,0.805,0.36,0.805,0.805v5.634h0.805
								c0.445,0,0.805,0.36,0.805,0.805C281.579,367.62,281.219,367.98,280.774,367.98z M329.064,353.493
								c-0.445,0-0.805-0.36-0.805-0.805v-8.048c0-0.445,0.36-0.805,0.805-0.805c0.445,0,0.805,0.36,0.805,0.805v8.048
								C329.869,353.133,329.509,353.493,329.064,353.493z M279.164,353.493c-0.445,0-0.805-0.36-0.805-0.805v-8.048
								c0-0.445,0.36-0.805,0.805-0.805c0.445,0,0.805,0.36,0.805,0.805v8.048C279.969,353.133,279.609,353.493,279.164,353.493z
								 M329.064,337.397c-0.445,0-0.805-0.36-0.805-0.805v-8.048c0-0.445,0.36-0.805,0.805-0.805c0.445,0,0.805,0.36,0.805,0.805
								v8.048C329.869,337.037,329.509,337.397,329.064,337.397z M279.164,337.397c-0.445,0-0.805-0.36-0.805-0.805v-8.048
								c0-0.445,0.36-0.805,0.805-0.805c0.445,0,0.805,0.36,0.805,0.805v8.048C279.969,337.037,279.609,337.397,279.164,337.397z
								 M329.064,321.3c-0.445,0-0.805-0.36-0.805-0.805v-2.415h-4.024c-0.445,0-0.805-0.36-0.805-0.805
								c0-0.445,0.36-0.805,0.805-0.805h4.829c0.445,0,0.805,0.36,0.805,0.805v3.219C329.869,320.94,329.509,321.3,329.064,321.3z
								 M279.164,321.3c-0.445,0-0.805-0.36-0.805-0.805v-3.219c0-0.445,0.36-0.805,0.805-0.805h4.829
								c0.445,0,0.805,0.36,0.805,0.805c0,0.445-0.36,0.805-0.805,0.805h-4.024v2.415C279.969,320.94,279.609,321.3,279.164,321.3z
								 M316.187,318.081h-8.048c-0.445,0-0.805-0.36-0.805-0.805c0-0.445,0.36-0.805,0.805-0.805h8.048
								c0.445,0,0.805,0.36,0.805,0.805C316.992,317.721,316.632,318.081,316.187,318.081z M300.09,318.081h-8.048
								c-0.445,0-0.805-0.36-0.805-0.805c0-0.445,0.36-0.805,0.805-0.805h8.048c0.445,0,0.805,0.36,0.805,0.805
								C300.895,317.721,300.535,318.081,300.09,318.081z"/>
						</g>
						<g>
							<circle style="fill:#698BB1;" cx="304.114" cy="342.225" r="12.408"/>
							<polygon style="fill:#FFFFFF;" points="311.21,340.182 306.156,340.182 306.156,335.129 302.072,335.129 302.072,340.182 
								297.018,340.182 297.018,344.267 302.072,344.267 302.072,349.321 306.156,349.321 306.156,344.267 311.21,344.267 							
								"/>
						</g>
					</g>
					<g>
						<g>
							<path style="fill:#343C4B;" d="M485.693,176.184H278.359v-17.159h207.334V176.184z M279.969,174.574h204.114v-13.94H279.969
								V174.574z"/>
						</g>
					</g>
					<g>
						<polygon style="fill:#FCC700;" points="496.156,160.26 496.156,164.637 490.153,167.604 496.156,170.572 496.156,174.949 
							518.883,174.949 518.883,160.26 						"/>
						<polygon style="fill:#FFFFFF;" points="512.067,166.296 508.831,166.296 508.831,163.06 506.215,163.06 506.215,166.296 
							502.979,166.296 502.979,168.912 506.215,168.912 506.215,172.148 508.831,172.148 508.831,168.912 512.067,168.912 						"/>
					</g>
				</g>
			</g>
			<g>
				<g>
					<path style="fill:#C1BED7;" d="M394.545,285.361c-0.433,0-0.791-0.344-0.804-0.78l-0.224-7.308
						c-0.013-0.445,0.336-0.816,0.78-0.83c0.402,0.008,0.816,0.336,0.829,0.78l0.199,6.508c0.414,0.02,0.75,0.357,0.762,0.78
						c0.013,0.443-0.336,0.814-0.781,0.828l-0.737,0.022C394.562,285.361,394.554,285.361,394.545,285.361z M403.327,285.092
						c-0.433,0-0.791-0.344-0.804-0.78c-0.013-0.445,0.336-0.816,0.781-0.83l8.044-0.247c0.418,0.002,0.816,0.336,0.829,0.78
						c0.013,0.445-0.336,0.816-0.781,0.83l-8.044,0.247C403.344,285.092,403.336,285.092,403.327,285.092z M419.416,284.599
						c-0.433,0-0.791-0.344-0.804-0.78c-0.013-0.445,0.336-0.816,0.78-0.83l8.044-0.245c0.391,0.013,0.816,0.336,0.829,0.78
						c0.013,0.445-0.336,0.816-0.78,0.83l-8.044,0.245C419.433,284.599,419.424,284.599,419.416,284.599z M435.505,284.107
						c-0.433,0-0.791-0.344-0.804-0.78c-0.013-0.445,0.336-0.816,0.78-0.83l8.044-0.247c0.405,0.024,0.815,0.336,0.829,0.78
						c0.013,0.445-0.336,0.816-0.78,0.83l-8.044,0.247C435.523,284.107,435.514,284.107,435.505,284.107z M451.594,283.614
						c-0.433,0-0.791-0.344-0.804-0.78c-0.013-0.445,0.336-0.816,0.78-0.83l8.044-0.247c0.418-0.006,0.815,0.335,0.829,0.78
						c0.013,0.445-0.336,0.816-0.78,0.83l-8.044,0.247C451.611,283.614,451.603,283.614,451.594,283.614z M467.683,283.121
						c-0.433,0-0.791-0.344-0.804-0.78c-0.013-0.445,0.336-0.816,0.78-0.83l8.045-0.247c0.432,0.006,0.816,0.336,0.829,0.78
						c0.013,0.445-0.336,0.816-0.781,0.83l-8.045,0.247C467.7,283.121,467.691,283.121,467.683,283.121z M483.772,282.629
						c-0.433,0-0.791-0.344-0.804-0.78c-0.013-0.445,0.336-0.816,0.78-0.83l8.044-0.247c0.405,0.016,0.815,0.336,0.829,0.78
						c0.013,0.445-0.336,0.816-0.78,0.83l-8.044,0.247C483.79,282.629,483.781,282.629,483.772,282.629z M491.637,276.492
						c-0.433,0-0.79-0.344-0.804-0.78l-0.247-8.045c-0.013-0.445,0.336-0.816,0.78-0.83c0.43,0.017,0.816,0.336,0.829,0.78
						l0.247,8.045c0.013,0.445-0.336,0.816-0.78,0.83C491.654,276.492,491.645,276.492,491.637,276.492z M394.075,270.009
						c-0.433,0-0.791-0.344-0.804-0.78l-0.247-8.045c-0.013-0.445,0.336-0.816,0.78-0.83c0.413-0.005,0.816,0.335,0.829,0.78
						l0.247,8.045c0.013,0.445-0.336,0.816-0.781,0.83C394.093,270.009,394.084,270.009,394.075,270.009z M491.144,260.402
						c-0.433,0-0.791-0.344-0.804-0.78l-0.246-8.044c-0.013-0.445,0.336-0.816,0.78-0.83c0.4,0.003,0.816,0.336,0.829,0.78
						l0.246,8.044c0.013,0.445-0.336,0.816-0.78,0.83C491.161,260.402,491.153,260.402,491.144,260.402z M393.582,253.919
						c-0.433,0-0.791-0.344-0.804-0.78l-0.246-8.044c-0.013-0.445,0.336-0.816,0.78-0.83c0.423,0.021,0.816,0.336,0.829,0.78
						l0.246,8.044c0.013,0.445-0.336,0.816-0.78,0.83C393.6,253.919,393.591,253.919,393.582,253.919z M490.651,244.314
						c-0.433,0-0.791-0.344-0.804-0.781l-0.246-8.045c-0.013-0.444,0.336-0.815,0.78-0.829c0.411,0.031,0.816,0.336,0.829,0.78
						l0.246,8.045c0.013,0.444-0.336,0.815-0.78,0.829C490.668,244.314,490.66,244.314,490.651,244.314z M393.09,237.83
						c-0.433,0-0.791-0.344-0.804-0.78l-0.246-8.044c-0.013-0.444,0.336-0.815,0.78-0.829c0.394,0.008,0.816,0.336,0.829,0.781
						l0.246,8.044c0.013,0.444-0.336,0.815-0.78,0.829C393.107,237.83,393.098,237.83,393.09,237.83z M490.159,228.224
						c-0.433,0-0.791-0.344-0.804-0.781l-0.246-8.044c-0.013-0.444,0.336-0.815,0.78-0.829c0.421,0.017,0.816,0.336,0.829,0.781
						l0.246,8.044c0.013,0.444-0.336,0.815-0.78,0.829C490.176,228.224,490.168,228.224,490.159,228.224z M392.597,221.742
						c-0.433,0-0.791-0.344-0.804-0.781l-0.213-6.968c-0.013-0.444,0.336-0.815,0.78-0.829l1.077-0.033
						c0.419-0.005,0.816,0.336,0.829,0.781c0.013,0.444-0.336,0.815-0.78,0.829l-0.272,0.008l0.189,6.164
						c0.013,0.444-0.336,0.815-0.78,0.829C392.614,221.742,392.606,221.742,392.597,221.742z M401.505,214.495
						c-0.433,0-0.79-0.344-0.804-0.781c-0.013-0.444,0.336-0.815,0.781-0.829l8.045-0.247c0.392,0.006,0.816,0.336,0.829,0.781
						c0.013,0.444-0.336,0.815-0.781,0.829l-8.045,0.247C401.522,214.495,401.514,214.495,401.505,214.495z M417.595,214.002
						c-0.433,0-0.791-0.344-0.804-0.781c-0.013-0.444,0.336-0.815,0.781-0.829l8.044-0.246c0.406,0.016,0.815,0.336,0.829,0.781
						c0.013,0.444-0.336,0.815-0.78,0.829l-8.044,0.246C417.612,214.002,417.603,214.002,417.595,214.002z M433.683,213.509
						c-0.433,0-0.791-0.344-0.804-0.78c-0.013-0.444,0.336-0.815,0.78-0.829l8.044-0.246c0.42,0.027,0.816,0.336,0.829,0.781
						c0.013,0.444-0.336,0.815-0.78,0.829l-8.044,0.246C433.701,213.509,433.692,213.509,433.683,213.509z M449.773,213.017
						c-0.433,0-0.791-0.344-0.804-0.781c-0.013-0.444,0.336-0.815,0.78-0.829l8.044-0.247c0.392-0.002,0.816,0.336,0.829,0.781
						c0.013,0.444-0.336,0.815-0.78,0.829l-8.044,0.247C449.79,213.017,449.782,213.017,449.773,213.017z M465.862,212.524
						c-0.433,0-0.791-0.344-0.804-0.78c-0.013-0.444,0.336-0.815,0.78-0.829l8.044-0.247c0.406,0.009,0.814,0.336,0.829,0.781
						c0.013,0.444-0.336,0.815-0.781,0.829l-8.044,0.247C465.879,212.524,465.87,212.524,465.862,212.524z M489.666,212.135
						c-0.261,0-0.494-0.125-0.641-0.32l-7.049,0.216c-0.38,0.01-0.816-0.335-0.829-0.78c-0.013-0.444,0.336-0.815,0.781-0.829
						l7.705-0.236c0.215-0.012,0.421,0.072,0.576,0.218c0.156,0.146,0.246,0.349,0.253,0.562l0.01,0.339
						c0.013,0.444-0.336,0.816-0.781,0.829C489.683,212.135,489.675,212.135,489.666,212.135z"/>
				</g>
				<g>
					<g>
						<g>
							<path style="fill:#343C4B;" d="M484.038,288.788l-85.121,10.748c-3.156,0.398-6.038-1.837-6.436-4.993l-7.404-58.634
								c-0.398-3.156,1.837-6.038,4.993-6.436l85.121-10.748c3.156-0.398,6.038,1.837,6.436,4.993l7.404,58.634
								C489.429,285.508,487.194,288.389,484.038,288.788z"/>
							<path style="fill:#FFFFFF;" d="M482.957,285.946l-67.638,8.547l-15.984,2.012c-1.835,0.241-3.509-1.062-3.751-2.897
								l-3.171-25.207l-4.089-32.354c-0.242-1.851,1.062-3.525,2.914-3.75l83.525-10.559c1.851-0.226,3.542,1.078,3.767,2.93
								l4.024,31.855l3.235,25.674C486.031,283.999,484.744,285.689,482.957,285.946z"/>
						</g>
						
							<ellipse transform="matrix(0.9616 -0.2743 0.2743 0.9616 -53.5681 129.6362)" style="fill:#FDA859;" cx="436.701" cy="256.339" rx="19.862" ry="19.862"/>
						<path style="fill:#0CC3BE;" d="M482.957,285.946l-67.638,8.547l23.292-26.092l20.926-23.437l23.018,11.557l3.235,25.674
							C486.031,283.999,484.744,285.689,482.957,285.946z"/>
						<path style="fill:#0797A7;" d="M467.649,287.878l-68.314,8.628c-1.835,0.241-3.509-1.062-3.751-2.897l-3.171-25.207
							l20.089-17.497l26.109,17.497L467.649,287.878z"/>
					</g>
					<polygon style="fill:#FD7658;" points="490.105,288.837 471.043,274.082 471.435,298.185 477.488,295.154 482.258,304.681 
						488.822,301.395 484.052,291.868 					"/>
				</g>
			</g>
		</g>
		<ellipse style="fill:#DFDEEE;" cx="271.193" cy="433.619" rx="81.786" ry="11.916"/>
		<g>
			<g>
				<path style="fill:#FFFFFF;" d="M231.309,179.224l1.244-3.684l1.244,3.684c1.602,4.743,4.929,8.709,9.321,11.111l0,0l0,0
					c-4.392,2.402-7.719,6.368-9.321,11.111l-1.244,3.683l-1.244-3.683c-1.602-4.743-4.93-8.709-9.321-11.111l0,0l0,0
					C226.379,187.933,229.707,183.967,231.309,179.224z"/>
				<path style="fill:#FFFFFF;" d="M215.719,203.124l0.863-2.555l0.863,2.555c1.111,3.29,3.419,6.041,6.465,7.707l0,0l0,0
					c-3.046,1.666-5.354,4.417-6.465,7.707l-0.863,2.555l-0.863-2.555c-1.111-3.29-3.419-6.041-6.465-7.707l0,0l0,0
					C212.3,209.165,214.608,206.414,215.719,203.124z"/>
			</g>
		</g>
		<g>
			<path style="fill:#0CC3BE;" d="M559.216,420.931c-1.25,1.21-2.57,2.32-3.96,3.35c-4.2,3.12-9.01,5.55-14.16,7.34
				c-1.94,0.66-3.9,1.24-5.91,1.74c-3.16,0.79-6.39,1.35-9.64,1.72c-1.23,0.13-2.45,0.24-3.69,0.34c-2.53,0.16-5.05,0.22-7.57,0.17
				c-0.69-0.01-1.36-0.03-2.04-0.06c-0.5-0.02-1.01-0.05-1.51-0.08c-1.6-0.08-3.19-0.19-4.77-0.34c-2.77-0.24-5.52-0.58-8.26-0.98
				c-10.51-1.55-20.82-4.09-31.09-6.92c-0.22-0.06-0.45-0.12-0.67-0.19c-4.14-3.36-8.06-6.99-10.46-11.7
				c-2.84-5.66-2.8-13.31,1.87-17.61c3.7-3.42,9.37-3.91,14.2-2.52c4.84,1.38,9.01,4.37,13.1,7.3
				c-8.37-8.49-13.89-19.75-15.45-31.58c-0.63-4.65-0.63-9.53,1.25-13.82c1.86-4.29,5.9-7.88,10.58-8.08
				c4.8-0.25,9.01,2.89,12.64,6.08c13.42,11.81,24.74,29.51,32.66,45.54c-1.92-9.18-1.76-18.8,0.45-27.95
				c0.95-3.96,2.51-8.13,5.97-10.28c3.15-1.97,7.34-1.76,10.67-0.16c3.35,1.59,5.97,4.44,8.03,7.51c4.8,7.12,7.04,15.7,7.73,24.25
				C559.796,401.671,559.796,412.601,559.216,420.931z"/>
			<path style="fill:#0797A7;" d="M494.137,426.871c3.911,2.785,7.855,5.537,11.831,8.242c-2.769-0.242-5.521-0.579-8.258-0.982
				c0.241-0.048,0.499-0.081,0.741-0.113c-1.867-1.32-3.718-2.64-5.585-3.976c-0.676,0.016-1.368-0.322-1.61-1.127
				c-4.475-3.171-8.885-6.358-13.28-9.642c-1.722-1.272,0.048-4.105,1.786-2.817c3.316,2.463,6.664,4.893,10.028,7.324
				c-0.901-3.187-1.803-6.374-2.704-9.577c-0.563-2.076,2.704-2.801,3.284-0.741C491.626,417.954,492.866,422.413,494.137,426.871z"
				/>
			<path style="fill:#0797A7;" d="M512.214,429.141c0.692,2.157,1.384,4.298,2.077,6.455c-0.692-0.016-1.368-0.032-2.044-0.064
				c-0.499-0.016-1.014-0.048-1.513-0.081c-0.595-1.851-1.191-3.702-1.786-5.553C508.286,427.821,511.57,427.113,512.214,429.141z"
				/>
			<path style="fill:#0797A7;" d="M505.196,400.827c6.793,11.413,13.569,22.825,20.346,34.254c-1.223,0.129-2.447,0.241-3.686,0.338
				c-3.847-6.471-7.678-12.942-11.525-19.413c-5.199-1.626-10.205-3.622-15.082-6.004c-1.932-0.95-0.145-3.767,1.786-2.833
				c3.477,1.69,7.051,3.171,10.688,4.459c-7.018-11.815-14.052-23.646-21.055-35.461c-1.111-1.851,1.867-3.397,2.962-1.529
				c4.298,7.179,8.547,14.374,12.829,21.585c0.612-4.475,1.223-8.918,1.835-13.393c0.29-2.108,3.622-2.028,3.332,0.113
				C506.821,388.916,506.017,394.871,505.196,400.827z"/>
			<path style="fill:#0797A7;" d="M552.761,391.636c-4.185,3.139-8.129,6.535-11.815,10.238c-0.708,9.111-1.384,18.205-2.092,27.3
				c2.35-2.576,4.764-5.103,7.276-7.517c1.561-1.497,3.831,0.982,2.254,2.479c-2.511,2.415-4.942,4.909-7.292,7.485
				c-1.932,0.66-3.896,1.239-5.908,1.738c0.402-5.409,0.821-10.817,1.24-16.225c-3.396-1.448-6.825-2.897-10.237-4.346
				c-1.964-0.821-1.014-4.024,0.982-3.203c3.155,1.352,6.358,2.704,9.513,4.04c0.982-12.652,1.964-25.304,2.93-37.956
				c0.161-2.157,3.493-2.044,3.348,0.113c-0.547,7.018-1.078,14.02-1.61,21.054c2.897-2.72,5.956-5.28,9.159-7.662
				C552.214,387.902,554.5,390.364,552.761,391.636z"/>
		</g>
		<path style="fill:#0797A7;" d="M180.606,393.381c-0.94,1.61-1.85,3.17-2.74,4.67c12.41-5.08,27.49-4.86,39.77,0.75
			c-13.18,4.31-27.56,5.11-40.87,1.04c-0.05,0.08-0.1,0.16-0.14,0.23c-0.46-0.38-0.91-0.76-1.36-1.16c1-1.65,2.02-3.47,3.08-5.35
			c-10.64-9.24-18.8-21.39-21.97-35.2c11.67,7.31,20.25,20.39,22.55,34.16c0.23-0.41,0.46-0.82,0.7-1.24
			c2.78-5.12,5.74-10.85,8.7-17.07c-9.64-6.36-17.62-15.3-21.83-26.13c10.26,4.51,18.78,13.89,22.54,24.63
			c0.06-0.12,0.12-0.24,0.17-0.36c0.58-1.25,1.15-2.5,1.7-3.74c-0.03,0-0.06-0.01-0.09-0.02c0.04-0.03,0.09-0.05,0.14-0.09
			c1.62-3.61,3.15-7.18,4.57-10.64c-8.96-4.86-16.01-14.01-18.38-24.02c8.3,5.6,15.18,13.38,18.93,22.69
			c0.61-1.49,1.2-2.96,1.77-4.39c1.21-3.21,2.41-6.24,3.43-9.15c0.21-0.6,0.43-1.18,0.64-1.76c-7.74-3.11-14.39-9.98-17.26-17.91
			c7.32,3.99,13.65,9.95,17.43,17.44c0.24-0.66,0.47-1.31,0.7-1.95c0.46-1.36,0.9-2.66,1.33-3.91c0.91-2.7,1.7-5.12,2.39-7.24
			c-4.96-3.12-8.87-8.57-10.22-14.34c4.56,3.42,8.38,7.99,10.55,13.31c0.42-1.29,0.78-2.43,1.1-3.43
			c-0.77-5.77,0.87-12.21,4.38-16.93c0.35,5.95-0.78,12.08-3.71,17.32c-0.15,0.61-0.31,1.27-0.5,1.98c3.71-4,8.37-7.18,13.63-8.76
			c-2.97,4.95-8.32,8.88-14.05,10.38c-0.08,0.32-0.17,0.64-0.26,0.98c0,0.02,0.01,0.03,0.01,0.05c-0.01,0-0.01-0.01-0.02-0.02
			c-0.58,2.13-1.27,4.56-2.09,7.25c-0.09,0.29-0.18,0.59-0.27,0.88c4.86-3.88,10.71-6.15,16.94-5.83
			c-4.19,5.25-10.83,7.99-17.38,7.25c-0.18,0.57-0.35,1.15-0.54,1.74c-0.44,1.39-0.94,2.83-1.44,4.33c-0.91,2.81-2,5.74-3.13,8.82
			c7.4-5.98,16.3-10.11,25.82-11.06c-6.35,7.77-16.53,12.83-26.7,13.39c-1.47,3.82-3.09,7.8-4.83,11.85
			c9.65-5.23,21.85-6.54,32.39-3.31c-10.32,4.95-21.98,7.21-33.32,5.45c-0.75,1.71-1.53,3.44-2.33,5.17
			c-1.79,3.83-3.6,7.46-5.38,10.88c11.27-7.45,26.28-10.12,39.49-6.88c-12.27,6.77-26.42,10.25-40.4,8.61
			C183.016,389.071,181.796,391.281,180.606,393.381z"/>
		<g>
			<g>
				<g>
					<g>
						<path style="fill:#343C4B;" d="M313.282,432.665c-0.108-0.65-0.422-1.407-1.267-1.776c-2.466-1.076-11.516-4.408-13.97-6.314
							c-1.906-1.479-3.589-4.703-4.246-6.07l-16.815,0.863c-0.962,4.288-1.575,12.546-1.696,14.275L313.282,432.665z"/>
						<polygon style="fill:#FFFFFF;" points="313.395,436.409 275.4,437.387 275.286,433.643 313.282,432.665 						"/>
						<g>
							<path style="fill:#FFFFFF;" d="M294.876,425.707c-0.025,0.044-0.05,0.088-0.073,0.132c-0.176,0.332-0.28,0.84,0.166,1.026
								c0.228,0.095,0.488,0.058,0.73,0.006c0.831-0.181,1.591-0.553,2.315-0.982c0.779-0.461,1.608-0.96,2.102-1.734
								c0.511-0.801-0.244-1.518-1.143-1.311C297.418,423.2,295.68,424.315,294.876,425.707z"/>
							<path style="fill:#FFFFFF;" d="M297.79,427.639c-0.025,0.044-0.05,0.088-0.073,0.132c-0.176,0.332-0.28,0.84,0.166,1.026
								c0.228,0.095,0.488,0.058,0.73,0.006c0.831-0.181,1.591-0.553,2.315-0.982c0.779-0.461,1.608-0.96,2.102-1.734
								c0.511-0.801-0.244-1.518-1.142-1.311C300.333,425.133,298.595,426.248,297.79,427.639z"/>
							<path style="fill:#FFFFFF;" d="M301.347,428.871c-0.025,0.044-0.05,0.088-0.073,0.132c-0.176,0.333-0.28,0.84,0.166,1.026
								c0.228,0.095,0.488,0.058,0.73,0.006c0.831-0.181,1.591-0.553,2.315-0.982c0.779-0.461,1.608-0.96,2.102-1.734
								c0.511-0.801-0.244-1.518-1.143-1.311C303.89,426.364,302.152,427.479,301.347,428.871z"/>
						</g>
					</g>
					<g>
						<path style="fill:#343C4B;" d="M256.22,415.719l-15.741-1.805c-1.742,4.483-4.173,12.901-5.437,17.41
							c-0.516,1.844-0.838,3.035-0.838,3.035s8.245,5.809,10.494,5.997c2.249,0.185,14.052-2.812,14.052-4.312
							c0-0.525-0.255-2.385-0.615-4.628C257.644,428.362,256.691,419.968,256.22,415.719z"/>
						<path style="fill:#FFFFFF;" d="M234.204,434.359c0,0,8.246,5.809,10.494,5.997c2.249,0.185,14.052-2.812,14.052-4.312
							c0-0.525-0.255-2.385-0.615-4.628c-3.841,1.506-12.067,4.487-14.781,3.513c-1.841-0.663-5.344-2.236-8.313-3.605
							C234.526,433.168,234.204,434.359,234.204,434.359z"/>
					</g>
					<path style="fill:#FFFFFF;" d="M244.723,422.969c-0.046,0.02-0.092,0.04-0.138,0.061c-0.341,0.16-0.73,0.502-0.485,0.919
						c0.125,0.213,0.355,0.341,0.579,0.444c0.772,0.356,1.603,0.516,2.439,0.61c0.899,0.101,1.862,0.202,2.722-0.119
						c0.89-0.332,0.719-1.359-0.122-1.735C248.262,422.499,246.202,422.342,244.723,422.969z"/>
					<path style="fill:#FFFFFF;" d="M244.723,426.216c-0.046,0.02-0.092,0.04-0.138,0.061c-0.341,0.16-0.73,0.502-0.485,0.919
						c0.125,0.213,0.355,0.341,0.579,0.444c0.772,0.356,1.603,0.516,2.439,0.61c0.899,0.101,1.862,0.202,2.722-0.119
						c0.89-0.332,0.719-1.359-0.122-1.735C248.262,425.747,246.202,425.59,244.723,426.216z"/>
					<path style="fill:#FFFFFF;" d="M244.405,429.19c-0.046,0.02-0.092,0.04-0.138,0.061c-0.341,0.16-0.73,0.502-0.485,0.919
						c0.125,0.213,0.355,0.341,0.579,0.444c0.772,0.356,1.603,0.516,2.439,0.61c0.899,0.101,1.861,0.202,2.722-0.119
						c0.89-0.332,0.719-1.359-0.123-1.735C247.944,428.72,245.885,428.564,244.405,429.19z"/>
					<g>
						<path style="fill:#456997;" d="M300.045,357.238c0.207-2.898-1.736-33.406-3.124-54.429c-0.326-4.936-0.621-9.348-0.85-12.757
							h-52.649l0.095,10.232l-1.322,53.082c0,0-5.137,42.059-7.507,61.251c8.718,1.717,17.632,2.566,26.622,2.765l2.599-61.735
							l8.886-50.343l0.507-3.162l0.156,3.182l2.338,48.044l-3.763,67.562c9.427-0.268,18.888-1.155,28.248-2.422
							C299.807,400.758,299.852,359.94,300.045,357.238z"/>
						<path style="fill:#254F79;" d="M279.099,353.364l-4.863-57.939l-0.933,6.714l0.156,3.182l2.338,48.044l-3.763,67.563
							c0.948-0.027,1.896-0.06,2.845-0.099L279.099,353.364z"/>
						<path style="fill:#254F79;" d="M246.36,290.051h-2.938l0.095,10.232l-1.322,53.082c0,0-5.137,42.059-7.507,61.251
							c0.68,0.134,1.362,0.26,2.045,0.383l8.997-61.634L246.36,290.051z"/>
					</g>
					<path style="fill:#698BB1;" d="M256.977,352.532c1.959,0.734,3.229,3.042,3.583,5.224c0.363,2.237-0.245,4.633-1.614,6.366
						c-0.779,0.986-1.853,1.784-3.056,1.877c-1.074,0.082-2.141-0.415-2.943-1.185c-0.802-0.77-1.362-1.791-1.774-2.857
						c-0.67-1.729-0.978-3.679-0.526-5.487c0.545-2.18,2.61-4.044,4.78-4.17C255.982,352.267,256.5,352.353,256.977,352.532z"/>
					<path style="fill:#698BB1;" d="M294.145,351.558c1.959,0.735,3.229,3.042,3.583,5.224c0.363,2.237-0.244,4.633-1.613,6.366
						c-0.779,0.986-1.853,1.784-3.056,1.877c-1.074,0.082-2.141-0.415-2.943-1.185c-0.802-0.77-1.362-1.791-1.774-2.857
						c-0.67-1.729-0.977-3.679-0.526-5.487c0.545-2.18,2.61-4.044,4.78-4.17C293.15,351.293,293.668,351.379,294.145,351.558z"/>
				</g>
				<path style="fill:#FD7658;" d="M297.636,305.266h-54.818c-0.008-0.156-0.008-0.312-0.008-0.484
					c0-1.361-0.746-23.375-1.476-44.594c-0.615-17.841-1.221-35.132-1.361-39.108c2.542-1.746,4.583-3.001,4.739-3.099
					c0.008-0.008,0.008-0.008,0.008-0.008l11.306-5.337l20.046-0.303c0,0,11.093,4.173,12.815,5.132
					C288.888,217.464,297.456,293.574,297.636,305.266z"/>
				<path style="fill:#FFFFFF;" d="M260.38,210.699l-4.961,1.934c0,0,6.288,10.659,14.393,14.784l3.863-5.58l4.916,3.188
					l-2.516-12.695l-3.413-2.484L260.38,210.699z"/>
				<g>
					<g>
						<g>
							<g>
								<g>
									<g>
										<g>
											<path style="fill:#FFA07F;" d="M260.38,210.699c0.284,0.284,12.775,9.527,12.775,9.527s-0.287-5.693-0.424-8.66
												c-0.04-0.919-0.068-1.576-0.068-1.721c0-1.186,1.013-6.322,1.013-6.322l-12.604-5.765c0,0-0.199,2.599-0.392,5.469
												C260.445,206.689,260.223,210.542,260.38,210.699z"/>
											<path style="fill:#FF7D6F;" d="M260.678,203.227c3.501,2.543,11.214,8.105,11.984,8.324
												c0.023,0.006,0.046,0.011,0.068,0.014c-0.04-0.919-0.068-1.576-0.068-1.721c0-1.186,1.013-6.322,1.013-6.322
												l-12.604-5.765C261.071,197.759,260.872,200.358,260.678,203.227z"/>
										</g>
									</g>
									<g>
										<g>
											<path style="fill:#FFA07F;" d="M259.345,198.199c0,0,0.316,0.91,1.723,2.156h0.003c0.287,0.256,0.623,0.526,1.009,0.805
												c1.479,1.061,15.323,6.993,17.456,6.709c2.133-0.284,4.143-7.614,4.254-8.385c0.685-4.729,2.571-19.344,2.571-19.344
												c-5.261-15.926-24.031-7.679-26.164-6.114C258.065,175.589,259.345,198.199,259.345,198.199z"/>
											<path style="fill:#FFBF90;" d="M261.072,200.354c0.287,0.256,0.623,0.526,1.009,0.805
												c1.479,1.061,15.323,6.993,17.456,6.709c2.133-0.284,4.143-7.614,4.254-8.385c-1.328,3.219-2.829,7.671-4.339,7.529
												C277.177,206.799,262.752,201.239,261.072,200.354z"/>
											<path style="fill:#343C4B;" d="M293.298,168.783c-0.91,21.883-30.977,6.208-30.977,6.208l-2.338,15.437
												c-0.61-1.676-1.428-2.587-2.172-3.094c-1.18-0.786-2.825-0.207-3.259,1.138c0,0.021-0.01,0.041-0.01,0.041
												s-0.734-2.245-1.345-5.07c0,0-0.01-0.01,0-0.01c-0.797-3.632-1.407-8.215-0.031-10.253
												c2.431-3.621,7.512-3.363,7.512-3.363c10.388-14.102,23.434-2.525,25.121-1.231
												C288.839,170.936,293.298,168.783,293.298,168.783z"/>
											<path style="fill:#3D4756;" d="M293.288,168.794c-0.207,0.3-4.118,6.021-7.946,6.849
												c-8.401,1.8-25.183-2.659-25.183-2.659c0.776,1.686-1.325,11.35-1.325,11.35s-1.169-2.876-3.011-2.938
												c-0.931-0.031-1.893,1.004-2.628,2.038c-0.486-2.224-0.91-4.811-0.838-6.942c0.041-1.355,0.279-2.525,0.807-3.311
												c1.78-2.649,4.977-3.218,6.56-3.331c0.59-0.052,0.952-0.031,0.952-0.031c0.434-0.59,0.869-1.128,1.314-1.624
												c10.139-11.536,22.193-0.848,23.807,0.393c2.918,2.256,7.139,0.362,7.48,0.207
												C293.278,168.794,293.278,168.794,293.288,168.794z"/>
											<g>
												<path style="fill:#495969;" d="M259.725,169.849c-0.155,2.949-1.221,6.373-1.221,6.373
													c-1.956-1.635-4.304-0.879-6.146,0.269c0.041-1.355,0.279-2.525,0.807-3.311
													C254.945,170.532,258.142,169.963,259.725,169.849z"/>
												<path style="fill:#495969;" d="M293.278,168.794c-0.362,0.248-5.059,3.352-10.533,4.821
													c-4.376,1.169-15.695-3.269-20.755-5.422c10.139-11.536,22.193-0.848,23.807,0.393
													C288.715,170.842,292.936,168.949,293.278,168.794z"/>
											</g>
										</g>
										<g>
											<path style="fill:#343C4B;" d="M284.081,184.501c0,0-0.831-4.178-2.696-3.571c-1.865,0.607-1.349,1.011-1.349,1.011
												L284.081,184.501z"/>
											<path style="fill:#343C4B;" d="M264.105,181.613c0,0,5.554-4.543,7.126-2.32c0.918,1.298,0.018,1.919,0.018,1.919
												L264.105,181.613z"/>
											<g>
												<path style="fill:#343C4B;" d="M282.972,188.956c0,1.109-0.56,2.008-1.25,2.008c-0.691,0-1.25-0.899-1.25-2.008
													c0-1.109,0.56-2.008,1.25-2.008C282.412,186.948,282.972,187.847,282.972,188.956z"/>
												<path style="fill:#343C4B;" d="M272.431,188.926c-0.658-1.036-1.847-1.803-3.174-2.047
													c-1.327-0.244-2.769,0.038-3.85,0.753c0.802-1.329,2.492-2.228,4.176-1.923
													C271.267,186.013,272.3,187.428,272.431,188.926z"/>
												<path style="fill:#FFFFFF;" d="M284.045,187.982c0,0-0.439,0.592-1.158,0.883c-0.719,0.291-1.447,0.171-1.447,0.171
													s0.439-0.592,1.158-0.883C283.318,187.862,284.045,187.982,284.045,187.982z"/>
											</g>
											<g>
												<path style="fill:#FC5B68;" d="M270.502,200.396c1.257,0.632,2.794,0.677,4.086,0.12
													c-0.449,0.653-1.076,1.039-1.868,1.009C271.928,201.495,271.037,200.981,270.502,200.396z"/>
											</g>
											<path style="fill:#FF7D6F;" d="M281.737,195.105c0.218,0.583,1.478,0.651,2.813,0.151c1.335-0.5,2.241-1.378,2.023-1.961
												s-1.478-0.651-2.813-0.151C282.425,193.644,281.519,194.522,281.737,195.105z"/>
											<path style="fill:#FF7D6F;" d="M264.939,192.383c-0.228,0.88,1.22,2.015,3.234,2.537
												c2.014,0.522,3.831,0.232,4.059-0.648c0.228-0.879-1.22-2.015-3.234-2.537
												C266.984,191.214,265.167,191.504,264.939,192.383z"/>
											<g>
												<path style="fill:#FC5B68;" d="M267.547,196.444c0,0,0.087,0.119,0.239,0.326c0.152,0.213,0.403,0.499,0.747,0.823
													c0.68,0.649,1.815,1.395,3.238,1.755c1.424,0.355,2.777,0.234,3.683-0.015c0.456-0.123,0.812-0.256,1.047-0.372
													c0.231-0.111,0.364-0.174,0.364-0.174s-0.145,0.026-0.396,0.073c-0.251,0.054-0.621,0.101-1.072,0.137
													c-0.904,0.074-2.145,0.016-3.459-0.311c-1.312-0.333-2.434-0.87-3.195-1.362c-0.38-0.244-0.684-0.461-0.88-0.628
													C267.662,196.536,267.547,196.444,267.547,196.444z"/>
											</g>
											<g>
												<path style="fill:#FF7D6F;" d="M278.103,193.039c-0.779,0.408-1.665,0.61-2.544,0.581
													c-0.609-0.02-1.277-0.191-1.613-0.699c-0.247,0.52-0.023,1.204,0.415,1.577c0.438,0.374,1.043,0.499,1.619,0.478
													c0.557-0.02,1.121-0.172,1.568-0.506C277.995,194.136,278.101,193.597,278.103,193.039z"/>
												<path style="fill:#FC5B68;" d="M276.881,186.438c-0.665,0.792-1.042,1.82-1.047,2.854s0.362,2.065,1.018,2.864
													c0.301,0.366,0.677,0.716,0.758,1.183c0.116,0.671-0.461,1.304-1.114,1.497c-0.653,0.193-1.353,0.061-2.02-0.072
													c0.604,0.235,1.22,0.416,1.867,0.394c0.647-0.022,1.305-0.253,1.75-0.724c0.445-0.471,0.637-1.198,0.387-1.796
													c-0.202-0.483-0.643-0.815-0.996-1.201C276.331,190.175,275.974,187.888,276.881,186.438z"/>
											</g>
										</g>
									</g>
								</g>
							</g>
							<g>
								<path style="fill:#FFBF90;" d="M261.382,198.762c-2.851-0.224-4.927-1.916-6.038-3.332c-0.25-0.319-0.451-0.625-0.601-0.896
									c-0.814-1.477-1.048-6.598,1.048-7.788c1.469-0.833,2.539,0.376,3.047,1.175c0,0.001,0,0.003,0,0.003
									c0.217,0.34,0.332,0.606,0.332,0.606L261.382,198.762z"/>
								<path style="fill:#FFA07F;" d="M261.382,198.762c-2.851-0.224-4.927-1.916-6.038-3.332c-0.096-0.145-0.18-0.282-0.252-0.413
									c-0.814-1.477-1.048-6.598,1.048-7.787c1.19-0.676,2.118-0.011,2.698,0.691c0,0.001,0,0.003,0,0.003
									c0.217,0.34,0.332,0.606,0.332,0.606L261.382,198.762z"/>
								<path style="fill:#FF7D6F;" d="M255.13,190.814c-0.105,0.41-0.039,0.836,0.096,1.24c0.573,1.719,2.289,3.03,3.933,4.248
									c-0.495-0.833-0.678-1.774-0.576-2.691c0.035-0.319,0.104-0.636,0.107-0.956
									C258.702,191.366,255.751,188.392,255.13,190.814z"/>
								<g>
									<path style="fill:#CF4A57;" d="M259.984,196.791c0,0-0.032-0.018-0.093-0.053c-0.059-0.036-0.156-0.084-0.265-0.158
										c-0.22-0.147-0.524-0.383-0.811-0.732c-0.285-0.348-0.544-0.814-0.667-1.365c-0.111-0.549-0.088-1.189,0.207-1.805
										c0.031-0.078,0.075-0.152,0.119-0.226l0.033-0.055c0.008-0.014,0.003-0.005,0.004-0.007l-0.001,0.002l0.001-0.001l0,0
										c0,0,0.002,0.003-0.005-0.009l-0.027-0.049l-0.055-0.098c-0.038-0.065-0.075-0.129-0.115-0.191
										c-0.155-0.252-0.323-0.488-0.495-0.708c-0.173-0.22-0.351-0.422-0.528-0.607c-0.178-0.184-0.349-0.356-0.52-0.484
										c-0.17-0.129-0.357-0.212-0.532-0.235c-0.176-0.02-0.341,0.02-0.453,0.075c-0.113,0.057-0.176,0.129-0.201,0.183
										c-0.028,0.054-0.026,0.087-0.029,0.086c0,0-0.008-0.031,0.005-0.092c0.011-0.06,0.057-0.15,0.169-0.234
										c0.112-0.081,0.287-0.157,0.519-0.163c0.232-0.002,0.482,0.076,0.704,0.201c0.225,0.127,0.427,0.285,0.64,0.459
										c0.211,0.176,0.426,0.373,0.631,0.593c0.205,0.22,0.404,0.462,0.584,0.724c0.046,0.065,0.089,0.133,0.132,0.2l0.063,0.103
										l0.084,0.145l0.058,0.102c-0.015,0.034-0.038,0.068-0.057,0.102l-0.084,0.146c-0.038,0.064-0.076,0.128-0.102,0.196
										c-0.256,0.535-0.313,1.094-0.266,1.596c0.06,0.503,0.229,0.949,0.435,1.303c0.207,0.355,0.443,0.618,0.62,0.792
										c0.088,0.088,0.168,0.148,0.216,0.194C259.957,196.767,259.984,196.791,259.984,196.791z"/>
								</g>
							</g>
						</g>
					</g>
				</g>
				<path style="fill:#FD7658;" d="M288.885,217.462c0,0,5.492,4.019,8.945,7.922c3.454,3.903,7.951,25.005,7.951,25.005
					l-13.065,7.811L288.885,217.462z"/>
				<path style="fill:#DE624C;" d="M287.067,223.609c-0.16-0.597-1.078-0.345-0.926,0.255c2.693,10.656,4.643,21.467,6.296,32.329
					c0.088,0.579,1.1,0.449,1.032-0.14C292.201,245.068,289.923,234.285,287.067,223.609z"/>
				<g>
					<g>
						<g>
							<path style="fill:#343C4B;" d="M292.746,239.645l-7.653,45.002c-0.284,1.669-1.866,2.791-3.535,2.507l-30.999-5.272
								c-1.669-0.284-2.791-1.866-2.507-3.535l7.653-45.002c0.284-1.669,1.867-2.791,3.535-2.507l30.999,5.272
								C291.908,236.394,293.03,237.976,292.746,239.645z"/>
							<path style="fill:#FFFFFF;" d="M291.133,239.757l-6.078,35.76l-1.44,8.449c-0.16,0.972-1.082,1.623-2.054,1.463
								l-13.325-2.272l-17.106-2.907c-0.98-0.162-1.631-1.085-1.461-2.062l7.503-44.16c0.171-0.977,1.095-1.637,2.073-1.466
								l16.842,2.863l13.572,2.312C290.615,237.891,291.277,238.808,291.133,239.757z"/>
						</g>
						<path style="fill:#FDA859;" d="M270.695,248.327c5.754,0.979,9.625,6.436,8.646,12.19c-0.978,5.754-6.436,9.625-12.19,8.646
							c-5.754-0.978-9.625-6.436-8.646-12.19C259.484,251.22,264.941,247.349,270.695,248.327z"/>
						<path style="fill:#0CC3BE;" d="M291.133,239.757l-6.078,35.76l-9.695-15.884l-8.707-14.27l9.435-9.939l13.572,2.312
							C290.615,237.891,291.277,238.808,291.133,239.757z"/>
						<path style="fill:#0797A7;" d="M289.756,247.85l-6.141,36.117c-0.16,0.972-1.082,1.623-2.054,1.463l-13.325-2.272
							l-5.812-12.928l12.936-10.597L289.756,247.85z"/>
					</g>
				</g>
				<g>
					<path style="fill:#FFA07F;" d="M232.339,254.76c0,0,0.219,32.803,2.268,35.236c4.572,5.429,33.966-15.799,36.807-17.65
						l0.003,0.008l0.083-0.062c0.249-0.161,0.379-0.238,0.379-0.238l-0.01-0.031l-0.153-0.303l-1.035-2.127l-0.339-0.682
						l-1.598-3.279l-0.342-0.716l-0.582-1.18l-0.008,0.003c0,0-0.005,0.01-0.029,0.018c-0.008,0.003-0.021,0.016-0.037,0.021
						l-0.654,0.269c-0.062,0.021-0.122,0.049-0.176,0.067c-0.039,0.013-0.075,0.034-0.114,0.046l-0.366,0.148l-23.708,9.826
						l2.393-25.311l-4.656,2.16L232.339,254.76z"/>
					<path style="fill:#FFA07F;" d="M290.836,257.048c-0.383,0.331-2.349,1.148-2.349,1.148s0.414,2.131,0.673,3.601
						c0.259,1.459-0.673,3.404-0.673,3.404s0.372,1.873,0,2.969c-0.341,1.035-2.462,2.349-2.721,2.504
						c-0.011,0.01-0.021,0.01-0.031,0.021c0,0-5.483,0.517-7.139,0.517c-1.656,0-6.715,0.838-6.715,0.838l-3.135-6.415l-0.01-0.031
						l-0.921-1.873c0,0,6.156-6.87,7.056-7.522c0.9-0.652,14.692-2.918,15.965-2.524
						C292.109,254.079,291.229,256.728,290.836,257.048z"/>
					<path style="fill:#FFBF90;" d="M240.466,250.981l1.777,26.682l26.5-12.032l-0.924-1.896l-0.008,0.003
						c0,0-0.005,0.01-0.029,0.018c-0.008,0.003-0.021,0.016-0.037,0.021l-0.654,0.269c-0.062,0.021-0.122,0.049-0.176,0.067
						c-0.039,0.013-0.075,0.034-0.114,0.046l-0.366,0.148l-20.772,8.609l-0.542-24.095L240.466,250.981z"/>
					<path style="fill:#FFBF90;" d="M290.836,257.048c-0.383,0.331-2.349,1.148-2.349,1.148s0.414,2.131,0.673,3.601
						c0.259,1.459-0.673,3.404-0.673,3.404s0.372,1.873,0,2.969c-0.341,1.035-2.462,2.349-2.721,2.504
						c2.348-1.655,1.583-5.411,1.583-5.411s0.9-1.159,1.097-2.018c0.197-0.859-0.579-4.873-0.579-4.873l1.935-1.811
						c0,0,0.714-1.159,0.29-1.738c-0.414-0.59-14.092,2.773-14.382,2.773c-0.289,0-6.963,8.039-6.963,8.039l-0.01-0.031
						l-0.921-1.873c0,0,6.156-6.87,7.056-7.522c0.9-0.652,14.692-2.918,15.965-2.524
						C292.109,254.079,291.229,256.728,290.836,257.048z"/>
				</g>
				<path style="fill:#FD7658;" d="M250.788,258.967l-9.453,1.222l-12.38,1.607c0,0-1.254-27.45,0.59-31.607
					c1.058-2.386,6.379-6.354,10.429-9.109c2.542-1.746,4.583-3.001,4.739-3.099c0.008-0.008,0.008-0.008,0.008-0.008l3.591,26.204
					L250.788,258.967z"/>
				<path style="fill:#DE624C;" d="M245.458,229.305c-0.042-0.127-0.221-0.074-0.198,0.054c1.72,9.641,3.011,19.223,2.847,29.036
					c-0.013,0.8,1.229,0.8,1.243,0C249.514,248.559,248.553,238.684,245.458,229.305z"/>
			</g>
			<g>
				<g>
					<g>
						<path style="fill:#FFA07F;" d="M341.873,246.593c0.353-0.131,0.904-0.516,1.542-1.047c2.249-1.877,5.577-5.568,5.148-6.283
							c-0.15-0.25-2.441-5.638-2.641-5.965c-0.148-0.254-1.959-0.832-3.1-1.159c2.202-2.7,5.881-7.618,5.881-7.618
							s-0.038-0.359-0.271-0.778c-0.133-0.248-0.342-0.521-0.65-0.748c-0.834-0.623-4.887,2.993-4.887,2.993
							c-1.376,2.092-8.445,7.497-8.445,7.497c0.346-2.631-0.24-5.383-1.63-7.647c-0.013-0.021-0.027-0.045-0.043-0.065
							c-0.13-0.201-0.313-0.393-0.543-0.38c-0.113,0.008-0.215,0.064-0.306,0.128c-0.786,0.525-1.171,1.497-1.271,2.442
							c-0.105,0.939,0.031,1.891,0.036,2.837c0.012,1.812-0.656,3.523-1.322,5.209c-1.12,2.856,2.084,7.377,2.084,7.377
							s-0.87,1.112-1.588,2.119l6.208,5.531l3.487-3.924L341.873,246.593z"/>
						<path style="fill:#FF7D6F;" d="M341.873,246.593c0.353-0.131,0.904-0.516,1.542-1.047c2.249-1.877,5.577-5.568,5.148-6.283
							c-0.15-0.25-2.441-5.638-2.641-5.965c-0.148-0.254-1.959-0.832-3.1-1.159c-2.835,1.91,1.274,4.852,0.461,6.746
							c-1.589,3.7-6.047,5.954-6.294,6.599c-0.182,0.477-1.807,1.942-3.421,3.317l2.508,2.234l3.487-3.924L341.873,246.593z"/>
						<path style="fill:#FDBD8E;" d="M332.422,245.472c0.29-0.371,0.591-0.763,0.672-1.226c0.096-0.565-0.147-1.126-0.394-1.64
							c-0.807-1.664-1.777-3.319-1.919-5.162c-0.164-2.182,0.862-4.272,1.106-6.448c0.175-1.579-0.05-3.257,0.619-4.701
							c0.082-0.173,0.175-0.348,0.272-0.521c-0.132-0.201-0.315-0.394-0.546-0.38c-0.112,0.006-0.212,0.063-0.304,0.125
							c-0.788,0.527-1.17,1.5-1.272,2.443c-0.103,0.94,0.031,1.891,0.036,2.837c0.014,1.812-0.656,3.524-1.32,5.209
							c-1.123,2.855,2.083,7.378,2.083,7.378s-0.87,1.111-1.589,2.117l1.471,1.31C331.704,246.367,332.072,245.921,332.422,245.472z
							"/>
						<g>
							<path style="fill:#FDBD8E;" d="M347.914,240.793c-1.025,1.446-3.001,3.501-4.5,4.752c-0.348-0.418-0.792-0.955-1.277-1.554
								c-0.068-0.079-0.132-0.158-0.197-0.241c-0.128-0.159-0.258-0.321-0.388-0.487c-0.232-0.29-0.465-0.587-0.699-0.887
								c-0.054-0.068-0.108-0.137-0.163-0.208c-0.017-0.023-0.034-0.046-0.051-0.069c-0.159-0.206-0.318-0.412-0.474-0.619
								c-0.311-0.411-0.61-0.818-0.891-1.209c-0.066-0.097-0.133-0.189-0.198-0.282c-0.025-0.038-0.052-0.073-0.076-0.108
								c-0.16-0.234-0.309-0.453-0.445-0.666c-0.045-0.074-0.091-0.149-0.135-0.22c-0.43-0.687-0.696-1.233-0.686-1.521
								c0.04-1.405,5.088-5.336,5.088-5.336s0.004,0.002,0.008,0.005c1.14,0.324,2.944,0.9,3.092,1.154
								c0.2,0.327,2.491,5.715,2.641,5.965C348.707,239.5,348.43,240.073,347.914,240.793z"/>
							<g>
								<g>
									<path style="fill:#CD4A57;" d="M343.508,235.949c0,0-0.292,0.35-0.787,0.856c-0.498,0.51-1.191,1.179-2.009,1.838
										c-0.602,0.487-1.203,0.903-1.711,1.238c-0.16-0.234-0.309-0.453-0.445-0.666c0.384-0.467,0.87-0.97,1.455-1.441
										c0.849-0.685,1.733-1.147,2.392-1.43C343.069,236.062,343.508,235.949,343.508,235.949z"/>
								</g>
								<g>
									<path style="fill:#CD4A57;" d="M345.86,237.469c0,0-1.344,1.724-3.356,3.367c-0.63,0.512-1.253,0.959-1.813,1.333
										c-0.017-0.023-0.034-0.046-0.051-0.069c-0.159-0.206-0.318-0.412-0.474-0.619c0.46-0.482,1.007-1.005,1.631-1.512
										C343.832,238.311,345.86,237.469,345.86,237.469z"/>
								</g>
								<g>
									<path style="fill:#CD4A57;" d="M345.536,240.393c0,0-0.782,1.482-2.263,2.756c-0.382,0.327-0.77,0.607-1.136,0.843
										c-0.068-0.079-0.132-0.158-0.197-0.241c-0.128-0.159-0.258-0.321-0.388-0.487c0.291-0.316,0.623-0.646,0.994-0.963
										C344.005,241.044,345.536,240.393,345.536,240.393z"/>
								</g>
							</g>
						</g>
					</g>
				</g>
				<path style="fill:#FFA07F;" d="M336.07,251.037c0,0-25.069,31.815-31.629,31.039c-6.559-0.776-8.96-2.845-8.96-2.845
					l-2.194-21.365l7.698-4.604v-0.01l3.456-2.059l3.787,9.932l21.645-15.623l1.469,1.314l2.224,1.987L336.07,251.037z"/>
				<polygon style="fill:#FDBD8E;" points="331.342,246.816 307.649,265.326 300.986,253.262 300.986,253.251 304.442,251.192 
					308.228,261.125 329.873,245.502 				"/>
				<path style="fill:#FF7D6F;" d="M336.07,251.037c0,0-25.069,31.815-31.629,31.039c-6.559-0.776-8.96-2.845-8.96-2.845
					s8.287-0.641,10.295-1.293c2.017-0.652,27.79-29.135,27.79-29.135L336.07,251.037z"/>
			</g>
		</g>
	</g>
</g>

</svg>
